<?xml version="1.0" encoding="utf-8"?><!DOCTYPE svg PUBLIC "-//W3C//DTD SVG 1.1//EN" "http://www.w3.org/Graphics/SVG/1.1/DTD/svg11.dtd"><svg version="1.1" id="Layer_1" xmlns="http://www.w3.org/2000/svg" xmlns:xlink="http://www.w3.org/1999/xlink" x="0px" y="0px"  width="160px" height="56px" viewBox="0 0 160 56" enable-background="new 0 0 160 56" xml:space="preserve"><g> <path fill="#231F20" d="M127.292,3.983h4.203V2.435H116.85v1.548h4.226v29.468h-4.226v1.535h14.646v-1.535h-4.203V3.983z   M153.941,34.979v-1.526h-4.488V3.656c6.861-0.342,8.031,1.126,8.908,7.351h1.512l-0.536-8.572h-26.056l-0.53,8.572h1.544  c0.887-6.226,2.044-7.693,8.918-7.351v29.796h-4.494v1.526H153.941"/> <path fill="#231F20" d="M55.751,16.359V3.946h4.24c4.338,0,5.942,1.09,5.942,6.562c0,4.363-1.8,5.851-6.187,5.851H55.751   M114.063,3.946V2.41h-12.002l-7.054,22.254L88.193,2.41H76.237v1.536h4.206v29.458L75.9,33.4c-4.22,0.102-4.284-3.496-4.265-4.239  c0.058-7.933-1.714-10.801-9.315-11.976V17.08c4.533-0.479,10.33-1.769,10.33-7.264c0-6.768-6.317-7.405-11.644-7.405h-15.69v1.536  h4.2v29.471h-4.2v1.532h14.636v-1.532h-4.2V17.879c2.7-0.107,5.74,0.581,7.114,1.763c1.267,1.074,1.95,4.396,1.95,8.427  c0,4.977,2.571,6.861,7.498,6.861h14.104v-1.525h-4.107V4.451h0.1l9.686,30.479h1.646l9.746-30.479h0.15v28.953h-4.191v1.527  h14.617v-1.527h-4.194V3.946H114.063z"/> <path fill="#DC291E" d="M19.07,0.48h-4.859v3.947H6.122v8.229H0.035V24.81h6.163v8.022h8.013v4.078h4.284  c10.007,0,18.838-8.08,18.838-18.168C37.332,8.718,29.094,0.48,19.07,0.48"/> <path fill="#231F20" d="M49.503,44.721c0-0.273-0.147-0.4-0.4-0.4h-0.787v-1.57h1.844c0.821,0,1.169,0.348,1.169,1.168v7.141  c0,1.934,1.223,3.086,3.086,3.086s3.086-1.152,3.086-3.104v-7.122c0-0.82,0.363-1.168,1.184-1.168h1.828v1.57h-0.786  c-0.254,0-0.4,0.127-0.4,0.4v6.41c0,2.811-1.956,4.729-4.894,4.729c-2.959,0-4.93-1.918-4.93-4.729V44.721z M61.81,54.068h0.784  c0.257,0,0.403-0.145,0.403-0.399V42.751h1.662l5.733,8.16c0.475,0.694,1.077,1.754,1.077,1.754h0.038c0,0-0.13-1.024-0.13-1.754  v-6.992c0-0.821,0.348-1.168,1.189-1.168h1.826v1.569h-0.786c-0.256,0-0.401,0.127-0.401,0.402v10.918h-1.643l-5.751-8.162  c-0.475-0.694-1.06-1.752-1.06-1.752h-0.036c0,0,0.109,1.039,0.109,1.752v6.992c0,0.823-0.348,1.17-1.169,1.17H61.81V54.068z   M76.001,54.068h1.26v-9.75h-1.26v-1.567h4.255v1.567h-1.263v9.75h1.263v1.572h-4.255V54.068z M82.245,44.721  c-0.111-0.33-0.294-0.4-0.603-0.4h-0.259v-1.57h1.024c0.914,0,1.223,0.2,1.514,1.059l2.831,7.942  c0.239,0.694,0.494,1.771,0.494,1.771h0.036c0,0,0.238-1.076,0.494-1.771l2.828-7.942c0.312-0.858,0.603-1.059,1.517-1.059h1.024  v1.57h-0.256c-0.33,0-0.494,0.072-0.604,0.4l-4.055,10.92H86.3L82.245,44.721L82.245,44.721z M95.393,44.318h-1.186V42.75h7.577  c0.821,0,1.167,0.346,1.167,1.169v1.623h-1.661v-0.821c0-0.273-0.147-0.4-0.399-0.4h-3.67v4.035h4.508v1.57h-4.508v3.743  c0,0.256,0.145,0.401,0.399,0.401h3.761c0.258,0,0.403-0.146,0.403-0.401v-0.821h1.679v1.625c0,0.82-0.347,1.168-1.167,1.168  h-5.733c-0.824,0-1.17-0.347-1.17-1.168V44.318z M105.912,44.318h-1.188V42.75h5.625c2.264,0,3.854,1.423,3.854,3.779  c0,2.154-1.407,3.213-2.318,3.412v0.037c0,0,0.327,0.166,0.547,0.584l1.555,3.088c0.18,0.383,0.474,0.42,0.91,0.42h0.238v1.57  h-0.895c-1.004,0-1.37-0.127-1.79-0.969l-1.753-3.469c-0.327-0.604-0.565-0.694-1.278-0.694h-1.679v5.132h-1.826V44.318H105.912z   M110.111,48.939c1.388,0,2.209-0.895,2.209-2.336c0-1.444-0.821-2.285-2.172-2.285h-2.412v4.621H110.111z M117.162,52.646  c0,0,1.314,1.551,3.23,1.551c1.205,0,2.209-0.73,2.209-1.916c0-2.702-6.224-2.283-6.224-6.301c0-1.935,1.696-3.451,4.125-3.451  c1.369,0,3.67,0.621,3.67,2.373v1.062h-1.681v-0.603c0-0.676-0.969-1.17-1.99-1.17c-1.387,0-2.264,0.767-2.264,1.734  c0,2.61,6.207,2.027,6.207,6.264c0,1.971-1.532,3.67-4.09,3.67c-2.739,0-4.271-1.918-4.271-1.918L117.162,52.646L117.162,52.646z   M126.107,54.068h1.262v-9.75h-1.262v-1.567h4.254v1.567h-1.258v9.75h1.258v1.572h-4.254V54.068z M136.171,44.318h-2.592  c-0.259,0-0.403,0.127-0.403,0.4v0.823h-1.626v-1.698c0-0.822,0.276-1.094,1.097-1.094h8.873c0.824,0,1.096,0.273,1.096,1.094  v1.698h-1.623v-0.821c0-0.273-0.145-0.4-0.403-0.4h-2.592v11.32h-1.826V44.318L136.171,44.318z M147.82,50.016l-3.268-5.238  c-0.238-0.385-0.402-0.457-0.787-0.457h-0.363v-1.571h0.84c0.878,0,1.223,0.129,1.734,0.985l1.953,3.252  c0.422,0.713,0.784,1.443,0.784,1.443h0.036c0,0,0.348-0.732,0.787-1.443l1.936-3.252c0.508-0.856,0.877-0.985,1.731-0.985h0.842  v1.571h-0.345c-0.385,0-0.566,0.072-0.807,0.457l-3.248,5.238v5.625h-1.826V50.016L147.82,50.016z"/></g></svg>